<svg data-v-423bf9ae="" xmlns="http://www.w3.org/2000/svg" viewBox="0 0 84.54344061072541 60" class="font"><!----><!----><!----><g data-v-423bf9ae="" id="c1994bbe-1b89-4843-8aa3-5d8259ddeeda" fill="white" transform="matrix(4.454343211473998,0,0,4.454343211473998,-0.6236078141202981,-14.209354622644454)"><path d="M2.52 14L2.52 14.77Q2.45 14.80 2.32 14.82Q2.18 14.84 2.07 14.84L2.07 14.84Q1.30 14.84 0.92 14.36Q0.55 13.89 0.55 13.05L0.55 13.05L0.55 6.90L0.14 6.90L0.14 6.05L0.55 6.05L0.55 3.30L1.51 3.30L1.51 6.05L2.49 6.05L2.49 6.90L1.51 6.90L1.51 13.05Q1.51 13.58 1.70 13.80Q1.89 14.01 2.34 14.01L2.34 14.01Q2.38 14.01 2.43 14.01Q2.48 14.01 2.52 14L2.52 14ZM5.25 9.77L5.25 7.69Q5.25 6.92 4.61 6.92L4.61 6.92Q4.00 6.92 4.00 7.69L4.00 7.69L4.00 9.77L5.25 9.77ZM5.25 13.09L5.25 11.19L6.16 11.19L6.16 13.09Q6.16 14.84 4.61 14.84L4.61 14.84Q3.11 14.84 3.11 13.09L3.11 13.09L3.11 7.69Q3.11 6.80 3.49 6.36Q3.88 5.91 4.61 5.91L4.61 5.91Q6.16 5.91 6.16 7.69L6.16 7.69L6.16 10.47L4.00 10.47L4.00 13.09Q4.00 13.86 4.61 13.86L4.61 13.86Q5.25 13.86 5.25 13.09L5.25 13.09ZM11.27 14.71L10.12 14.71Q9.95 14.13 9.77 13.36Q9.58 12.59 9.40 11.86Q9.23 11.13 9.10 10.54Q8.97 9.95 8.93 9.72L8.93 9.72Q8.89 9.95 8.76 10.54Q8.64 11.13 8.47 11.86Q8.30 12.59 8.11 13.35Q7.92 14.11 7.76 14.71L7.76 14.71L6.66 14.71L8.34 8.57L6.92 3.19L8.05 3.19Q8.18 3.65 8.32 4.27Q8.47 4.89 8.60 5.48Q8.72 6.08 8.83 6.57Q8.93 7.07 8.97 7.32L8.97 7.32Q9.02 7.07 9.12 6.57Q9.23 6.08 9.36 5.48Q9.49 4.89 9.64 4.27Q9.79 3.65 9.91 3.19L9.91 3.19L11.02 3.19L9.56 8.54L11.27 14.71ZM14.10 13.31L14.10 7.53Q13.86 6.96 13.34 6.96L13.34 6.96Q13.02 6.96 12.88 7.13Q12.74 7.29 12.74 7.69L12.74 7.69L12.74 13.17Q12.74 13.55 12.88 13.71Q13.02 13.87 13.34 13.87L13.34 13.87Q13.58 13.87 13.78 13.73Q13.99 13.59 14.10 13.31L14.10 13.31ZM15.05 16.66L14.10 16.66L14.10 14.31Q13.93 14.55 13.66 14.69Q13.38 14.84 13.05 14.84L13.05 14.84Q12.38 14.84 12.07 14.49Q11.77 14.14 11.77 13.26L11.77 13.26L11.77 7.59Q11.77 6.75 12.09 6.36Q12.40 5.96 13.01 5.96L13.01 5.96Q13.47 5.96 13.76 6.17Q14.06 6.38 14.21 6.71L14.21 6.71Q14.21 6.37 14.25 6.05L14.25 6.05L15.05 6.05L15.05 16.66ZM19.12 14.71L18.24 14.71Q18.19 14.53 18.19 14.20L18.19 14.20Q17.84 14.84 17.15 14.84L17.15 14.84Q16.56 14.84 16.23 14.52Q15.90 14.20 15.90 13.47L15.90 13.47L15.90 12.19Q15.90 11.56 16.08 11.14Q16.25 10.71 16.55 10.42Q16.86 10.12 17.26 9.92Q17.67 9.72 18.13 9.52L18.13 9.52L18.13 7.63Q18.13 7.27 18.00 7.07Q17.86 6.87 17.50 6.87L17.50 6.87Q17.12 6.87 17.00 7.07Q16.87 7.27 16.87 7.63L16.87 7.63L16.87 9.45L16.02 9.45L16.02 7.62Q16.02 6.76 16.37 6.34Q16.73 5.91 17.53 5.91L17.53 5.91Q19.05 5.91 19.05 7.62L19.05 7.62L19.05 13.72Q19.05 14.03 19.07 14.29Q19.08 14.56 19.12 14.71L19.12 14.71ZM18.13 13.36L18.13 10.29Q17.71 10.44 17.45 10.63Q17.19 10.81 17.06 11.04Q16.93 11.27 16.88 11.57Q16.84 11.87 16.84 12.26L16.84 12.26L16.84 13.19Q16.84 13.90 17.50 13.90L17.50 13.90Q17.71 13.90 17.89 13.78Q18.06 13.65 18.13 13.36L18.13 13.36Z"></path></g><!----><!----></svg>